<svg width="165" height="39" viewBox="0 0 165 39" fill="none" xmlns="http://www.w3.org/2000/svg">
<path d="M24.0957 24.0955L34.1252 34.125" stroke="#868686" stroke-width="3" stroke-linecap="round" stroke-linejoin="round"/>
<path d="M34.125 26V34.125H26" stroke="#868686" stroke-width="3" stroke-linecap="round" stroke-linejoin="round"/>
<path d="M34.125 4.875L19.5 19.5L13 13L3.25 22.75" stroke="black" stroke-width="3" stroke-linecap="round" stroke-linejoin="round"/>
<path d="M34.125 13V4.875H26" stroke="black" stroke-width="3" stroke-linecap="round" stroke-linejoin="round"/>
<path d="M49.624 13.244V10.7H57.136V13.244H49.624ZM49.624 19.916V17.444H56.896V19.916H49.624ZM47.872 10.7H50.656V27.5H47.872V10.7ZM62.4756 12.068C62.4756 11.62 62.6356 11.244 62.9556 10.94C63.2916 10.636 63.6756 10.484 64.1076 10.484C64.5716 10.484 64.9556 10.636 65.2596 10.94C65.5796 11.244 65.7396 11.62 65.7396 12.068C65.7396 12.5 65.5796 12.876 65.2596 13.196C64.9556 13.5 64.5716 13.652 64.1076 13.652C63.6756 13.652 63.2916 13.5 62.9556 13.196C62.6356 12.876 62.4756 12.5 62.4756 12.068ZM62.8356 16.46H65.3796V27.5H62.8356V16.46ZM78.4506 20.78C78.4506 19.964 78.2826 19.348 77.9466 18.932C77.6106 18.516 77.0906 18.308 76.3866 18.308C75.9066 18.308 75.4826 18.412 75.1146 18.62C74.7466 18.812 74.4586 19.1 74.2506 19.484C74.0426 19.852 73.9386 20.284 73.9386 20.78V27.5H71.3466V16.46H73.9386V18.164C74.2906 17.508 74.7386 17.02 75.2826 16.7C75.8426 16.38 76.5066 16.22 77.2746 16.22C78.5226 16.22 79.4746 16.604 80.1306 17.372C80.7866 18.124 81.1146 19.164 81.1146 20.492V27.5H78.4506V20.78ZM82.9701 13.316V10.7H94.6821V13.316H90.2421V27.5H87.3861V13.316H82.9701ZM99.574 16.46V27.5H97.006V16.46H99.574ZM102.862 19.22C102.622 19.028 102.398 18.884 102.19 18.788C101.982 18.692 101.718 18.644 101.398 18.644C100.966 18.644 100.614 18.756 100.342 18.98C100.07 19.204 99.87 19.516 99.742 19.916C99.63 20.3 99.574 20.756 99.574 21.284L98.71 20.78C98.71 19.9 98.87 19.124 99.19 18.452C99.526 17.764 99.95 17.22 100.462 16.82C100.99 16.42 101.534 16.22 102.094 16.22C102.494 16.22 102.87 16.284 103.222 16.412C103.574 16.524 103.87 16.732 104.11 17.036L102.862 19.22ZM109.921 24.068C109.921 24.436 110.009 24.756 110.185 25.028C110.361 25.284 110.601 25.476 110.905 25.604C111.225 25.732 111.585 25.796 111.985 25.796C112.497 25.796 112.961 25.692 113.377 25.484C113.809 25.276 114.153 24.972 114.409 24.572C114.681 24.156 114.817 23.676 114.817 23.132L115.201 24.572C115.201 25.276 114.993 25.868 114.577 26.348C114.177 26.812 113.665 27.164 113.041 27.404C112.433 27.628 111.809 27.74 111.169 27.74C110.481 27.74 109.841 27.604 109.249 27.332C108.657 27.06 108.185 26.66 107.833 26.132C107.481 25.604 107.305 24.964 107.305 24.212C107.305 23.14 107.681 22.292 108.433 21.668C109.185 21.028 110.249 20.708 111.625 20.708C112.361 20.708 112.993 20.788 113.521 20.948C114.065 21.108 114.513 21.3 114.865 21.524C115.217 21.732 115.465 21.924 115.609 22.1V23.42C115.113 23.068 114.585 22.812 114.025 22.652C113.465 22.492 112.873 22.412 112.249 22.412C111.705 22.412 111.265 22.484 110.929 22.628C110.593 22.756 110.337 22.94 110.161 23.18C110.001 23.42 109.921 23.716 109.921 24.068ZM109.105 19.34L108.049 17.516C108.545 17.212 109.185 16.916 109.969 16.628C110.769 16.34 111.681 16.196 112.705 16.196C113.617 16.196 114.417 16.332 115.105 16.604C115.809 16.876 116.361 17.268 116.761 17.78C117.161 18.276 117.361 18.892 117.361 19.628V27.5H114.817V20.132C114.817 19.78 114.753 19.492 114.625 19.268C114.513 19.044 114.353 18.86 114.145 18.716C113.937 18.572 113.689 18.468 113.401 18.404C113.113 18.34 112.801 18.308 112.465 18.308C111.953 18.308 111.465 18.372 111.001 18.5C110.553 18.612 110.161 18.756 109.825 18.932C109.505 19.092 109.265 19.228 109.105 19.34ZM124.511 21.98C124.511 22.684 124.663 23.3 124.967 23.828C125.271 24.34 125.679 24.748 126.191 25.052C126.719 25.356 127.303 25.508 127.943 25.508C128.471 25.508 128.975 25.428 129.455 25.268C129.935 25.108 130.359 24.884 130.727 24.596C131.095 24.308 131.367 23.988 131.543 23.636V26.492C131.159 26.876 130.639 27.18 129.983 27.404C129.327 27.628 128.607 27.74 127.823 27.74C126.687 27.74 125.663 27.5 124.751 27.02C123.855 26.524 123.143 25.844 122.615 24.98C122.103 24.1 121.847 23.1 121.847 21.98C121.847 20.844 122.103 19.844 122.615 18.98C123.143 18.116 123.855 17.444 124.751 16.964C125.663 16.468 126.687 16.22 127.823 16.22C128.607 16.22 129.327 16.332 129.983 16.556C130.639 16.78 131.159 17.084 131.543 17.468V20.324C131.367 19.956 131.087 19.636 130.703 19.364C130.335 19.076 129.911 18.852 129.431 18.692C128.951 18.532 128.455 18.452 127.943 18.452C127.303 18.452 126.719 18.604 126.191 18.908C125.679 19.212 125.271 19.628 124.967 20.156C124.663 20.684 124.511 21.292 124.511 21.98ZM136.712 8.78H139.256V27.5H136.712V8.78ZM143.312 16.46H146.48L141.728 21.02L146.96 27.5H143.816L138.536 21.02L143.312 16.46ZM151.306 10.7H154.162V27.5H151.306V10.7ZM158.564 16.46H164.828V18.74H158.564V16.46ZM160.412 12.62H162.98V27.5H160.412V12.62Z" fill="black"/>
</svg>
